<svg width="400" height="400" viewBox="0 0 400 400" fill="none" xmlns="http://www.w3.org/2000/svg">
<rect width="400" height="400" fill="#1E1E1E"/>
<g clip-path="url(#clip0_0_1)">
<rect width="400" height="400" fill="white"/>
<rect width="400" height="400" fill="#D9D9D9"/>
<rect x="160.5" y="240.5" width="79" height="79" fill="#3F1111" stroke="black"/>
<rect x="240.5" y="160.5" width="79" height="79" fill="#3F1111" stroke="black"/>
<rect x="80.5" y="240.5" width="79" height="79" fill="#3F1111" stroke="black"/>
<rect x="240.5" y="240.5" width="79" height="79" fill="#3F1111" stroke="black"/>
<rect x="160.5" y="80.5" width="79" height="79" fill="#3F1111" stroke="black"/>
<rect x="0.5" y="0.5" width="79" height="79" fill="#CCCCCC" stroke="black"/>
<rect x="320.5" y="320.5" width="79" height="79" fill="#CCCCCC" stroke="black"/>
<rect x="240.5" y="320.5" width="79" height="79" fill="#CCCCCC" stroke="black"/>
<rect x="160.5" y="320.5" width="79" height="79" fill="#CCCCCC" stroke="black"/>
<rect x="80.5" y="320.5" width="79" height="79" fill="#CCCCCC" stroke="black"/>
<rect x="0.5" y="320.5" width="79" height="79" fill="#CCCCCC" stroke="black"/>
<rect x="320.5" y="240.5" width="79" height="79" fill="#CCCCCC" stroke="black"/>
<rect x="0.5" y="240.5" width="79" height="79" fill="#CCCCCC" stroke="black"/>
<rect x="320.5" y="160.5" width="79" height="79" fill="#CCCCCC" stroke="black"/>
<rect x="160.5" y="160.5" width="79" height="79" fill="#CCCCCC" stroke="black"/>
<rect x="80.5" y="160.5" width="79" height="79" fill="#CCCCCC" stroke="black"/>
<rect x="0.5" y="160.5" width="79" height="79" fill="#CCCCCC" stroke="black"/>
<rect x="320.5" y="80.5" width="79" height="79" fill="#CCCCCC" stroke="black"/>
<rect x="240.5" y="80.5" width="79" height="79" fill="#CCCCCC" stroke="black"/>
<rect x="80.5" y="80.5" width="79" height="79" fill="#CCCCCC" stroke="black"/>
<rect x="0.5" y="80.5" width="79" height="79" fill="#CCCCCC" stroke="black"/>
<rect x="320.5" y="0.5" width="79" height="79" fill="#CCCCCC" stroke="black"/>
<rect x="240.5" y="0.5" width="79" height="79" fill="#CCCCCC" stroke="black"/>
<rect x="160.5" y="0.5" width="79" height="79" fill="#CCCCCC" stroke="black"/>
<rect x="80.5" y="0.5" width="79" height="79" fill="#CCCCCC" stroke="black"/>
</g>
<defs>
<clipPath id="clip0_0_1">
<rect width="400" height="400" fill="white"/>
</clipPath>
</defs>
</svg>
